<svg xmlns="http://www.w3.org/2000/svg" xmlns:xlink="http://www.w3.org/1999/xlink" width="85.82" height="50" viewBox="0 0 85.82 50"><defs><clipPath id="a" transform="translate(-676 -695)"><rect x="676" y="695" width="85.82" height="50" style="fill:none"/></clipPath></defs><title>Kjaer Weis</title><g style="clip-path:url(#a)"><path d="M705.25,695h0" transform="translate(-676 -695)" style="fill:#231f20"/><path d="M742.75,695h0" transform="translate(-676 -695)" style="fill:#231f20"/><path d="M689.4,742.33l-12.92-22.56,14.91-17.59c2.67-3.2,1.22-7.1-2.13-7.17H677.91a1.9,1.9,0,0,0-1.91,2V743a1.9,1.9,0,0,0,1.76,2H688.4c1.51-.11,1.82-1.18,1-2.67" transform="translate(-676 -695)" style="fill:#231f20"/><path d="M720,697.37l11.42,40,5.15-14-8.33-26.34c-.39-1.08-.86-2-2-2h-4.49a1.79,1.79,0,0,0-1.76,2.36" transform="translate(-676 -695)" style="fill:#231f20"/><path d="M748.3,700.53l-4.44,11.75,7.61,25.08L761,703.52c1.72-6.06.89-8.45-3.61-8.51h-4.31c-2.2.07-3.29,1.66-4.77,5.52" transform="translate(-676 -695)" style="fill:#231f20"/></g><polygon points="55.49 50 67.45 50 61.99 32.82 55.49 50" style="fill:#231f20"/><g style="clip-path:url(#a)"><path d="M705.31,695h-2c-2.27.07-3.16,1.26-7.8,6.78l-8.88,10.41,17.68,30.6a4.53,4.53,0,0,0,4.12,2.2h12.76l-13.88-47.94c-.31-1.08-.85-2-2-2" transform="translate(-676 -695)" style="fill:#231f20"/><path d="M743.76,695h-2.67a1.79,1.79,0,0,0-1.76,2.36l3.09,10.17,3.09-10.17a1.79,1.79,0,0,0-1.76-2.36" transform="translate(-676 -695)" style="fill:#231f20"/></g></svg>
